<svg id="Camada_1" data-name="Camada 1" xmlns="http://www.w3.org/2000/svg" viewBox="0 0 1000 1000"><defs><style>.cls-1{fill:#007f00;}.cls-2{fill:#fff;}</style></defs><title>flor verde, escrita branca</title><path class="cls-1" d="M155.8,364.18s-31.18,53.9-31.18,112.54,20.87,83.18,29.8,83.18,29.8-30.91,29.8-89.55S155.8,364.18,155.8,364.18Z"/><path class="cls-1" d="M37.35,434.55s18.7,52.22,58.56,86,68.56,33.68,73.7,27.61-3.87-38.05-43.73-71.79S37.35,434.55,37.35,434.55Z"/><path class="cls-1" d="M277.21,429.5s-18.7,52.22-58.56,86-68.56,33.68-73.7,27.61,3.87-38.05,43.73-71.79S277.21,429.5,277.21,429.5Z"/><path class="cls-1" d="M28.29,534.15s39.93,23.1,83.37,23.1,61.62-15.46,61.62-22.08-22.9-22.07-66.34-22.07S28.29,534.15,28.29,534.15Z"/><path class="cls-1" d="M288,534.94S248,558,204.59,558,143,542.58,143,536s22.9-22.08,66.34-22.08S288,534.94,288,534.94Z"/><path class="cls-1" d="M225.41,584.93s-28,1.71-51.69-10.13S144.38,549.59,146.18,546s18.49-5.78,42.14,6S225.41,584.93,225.41,584.93Z"/><path class="cls-1" d="M89.15,584.81s28.08.77,51.32-11.84S169,546.8,167,543.26s-18.66-5.16-41.91,7.45S89.15,584.81,89.15,584.81Z"/><path class="cls-2" d="M457.08,448.08a61.92,61.92,0,0,0-.85-28.72,65.75,65.75,0,0,0-14.57-27.3q-10.76-12.3-28.43-20.23t-42.58-7.35c-6.69.13-19.21,1.59-24.57,2.25a16.2,16.2,0,0,0-4.82,1.36l-1.73.79c-3.39,1.44-11.86,5.73-16,14.87a20.6,20.6,0,0,0-1.65,9.72c.21,3.34.56,8.64,1,14.67a2.47,2.47,0,0,0,4.26,1.51c.38-.4.76-.79,1.15-1.18a80.64,80.64,0,0,1,24.76-17.12,64.91,64.91,0,0,1,15.13-4.66,71.08,71.08,0,0,1,16.69-1.14,64.24,64.24,0,0,1,16,2.83,35.83,35.83,0,0,1,13.3,7.5q8.49,7.92,11.6,16.69a39.39,39.39,0,0,1,2.12,17.69,53.42,53.42,0,0,1-5.09,17.4,76.28,76.28,0,0,1-23.49,28.15,58,58,0,0,1-14.28,7.78c-1.52.56-2.17,1.18-2,1.84a2.52,2.52,0,0,0,1.69,1.55q11.88,6.79,18.11,16.55a48.06,48.06,0,0,1,7.5,20,42.78,42.78,0,0,1-2.12,19.8,40.11,40.11,0,0,1-10.76,16.41,35.65,35.65,0,0,1-14.85,7.78q-8.34,2.13-16.27-3.25a16.89,16.89,0,0,1-6.08-6.79,29.85,29.85,0,0,1-2.83-9,44,44,0,0,1-.28-10,95.78,95.78,0,0,1,1.27-9.76q1.69-7.35,3.25-14.14t3-12.45q2.25-9.9,5-21.22t5.66-22.92q3-11.59,5.65-22.77c1.79-7.45,3.39-14.49,5-21.08,2-8.32-28.7-11.65-34.1-4.25a72.54,72.54,0,0,1-11,12.31c-4.25,3.68-17.84,14-17.63,17.14.61,9.2,5,13,6.84,12.72,5.84-1,11.87-4.82,16.59-7.08q-3.69,15.56-7.36,30.7t-6.79,29.28q-2.26,9.06-4.24,20.37a106,106,0,0,0-1.56,22.35,55.32,55.32,0,0,0,4.53,20.37,26.82,26.82,0,0,0,14,13.86,40.54,40.54,0,0,0,12.74,3.4,116.21,116.21,0,0,0,13,.85,85.07,85.07,0,0,0,29.28-4.25,76.38,76.38,0,0,0,22.64-12,63.75,63.75,0,0,0,15.27-17.12,50.13,50.13,0,0,0,7.08-19.8,45,45,0,0,0-2.12-20.23,44.55,44.55,0,0,0-12.17-18.25,67.78,67.78,0,0,0-5.52-4.39,28.16,28.16,0,0,0-6.93-3.53q16.13-3.68,25.89-14.15A50.56,50.56,0,0,0,457.08,448.08Z"/><path class="cls-2" d="M595.57,515.28a2.37,2.37,0,0,1,2.41-1.56,3,3,0,0,1,2.4,2.12,12.48,12.48,0,0,1,.57,5.66,29.85,29.85,0,0,1-2.83,9.34,60.17,60.17,0,0,1-8.07,12.87,59.31,59.31,0,0,1-11.17,10.61,52.38,52.38,0,0,1-13.44,7.07,33,33,0,0,1-14.85,1.7Q541,562,535.73,557a27.67,27.67,0,0,1-7.49-12.88,48.52,48.52,0,0,1-15.42,13.73q-8.93,4.95-21.08,4.95-12.45,0-20.94-6.93a40.1,40.1,0,0,1-12.45-18.25,65.31,65.31,0,0,1-3.53-30.42,71.54,71.54,0,0,1,9.47-28.57A59.51,59.51,0,0,1,484.66,458q12.73-7.77,29.15-6.65A30.75,30.75,0,0,1,527,455.44a31.08,31.08,0,0,1,10.61,10.89c.57-2.26,1.13-4.43,1.7-6.51s1-4.14,1.41-6.22a2.65,2.65,0,0,1,2-2,53.59,53.59,0,0,1,11,0,23.86,23.86,0,0,1,9.19,2.69,12.18,12.18,0,0,1,5.52,6.36q1.7,4.24.28,11-1.12,5.67-3.25,13.3t-4,15.56q-1.85,7.94-3.26,15.56a57,57,0,0,0-1.13,13q.28,9.9,5.95,13t13.86-2.54A39.65,39.65,0,0,0,588.64,527Q593.31,519.24,595.57,515.28Zm-69.32,9.62q.29-4.24.85-8.63c.38-2.93.85-6,1.42-9.2,0,0,2.09-19.43,3-22.82s-5.64-.52-5.73-3.63a19,19,0,0,0-2-8.21,8.46,8.46,0,0,0-6.37-4.38,14,14,0,0,0-9.9,2.12,30.93,30.93,0,0,0-8.77,8.49,67.3,67.3,0,0,0-7.07,12.73,75.44,75.44,0,0,0-4.67,14.71,71.5,71.5,0,0,0-1.56,14.57,29.64,29.64,0,0,0,2.27,12.17q2.54,6.23,7.78,8.49a17.21,17.21,0,0,0,10.89,1,27.86,27.86,0,0,0,11.18-5.65A29.23,29.23,0,0,0,526.25,524.9Z"/><path class="cls-2" d="M713.37,515.28a2.13,2.13,0,0,1,2.4-1.42,3.36,3.36,0,0,1,2.41,2.12,12.17,12.17,0,0,1,.56,5.66,29.49,29.49,0,0,1-2.83,9.48,67,67,0,0,1-8.06,12.73,57.09,57.09,0,0,1-11.18,10.75,52.07,52.07,0,0,1-13.44,7.07,33,33,0,0,1-14.85,1.7q-9.9-1.12-15-5.94a27.4,27.4,0,0,1-7.36-13A49.73,49.73,0,0,1,630.33,558q-8.91,4.82-21.08,4.81t-20.65-6.93a42.21,42.21,0,0,1-12.73-18,65.62,65.62,0,0,1-3.54-30.56,72.67,72.67,0,0,1,9.48-28.85,58.91,58.91,0,0,1,20.37-20.8q12.74-7.79,29.14-6.37,15,.85,24,14.72,4.8-20.66,9.76-41t9.48-41.59a2.21,2.21,0,0,1,2.26-1.69,60.36,60.36,0,0,1,10.89-.15,20.86,20.86,0,0,1,9,2.69,12.9,12.9,0,0,1,5.52,6.51q1.7,4.24.29,11-4.25,19.81-9.34,39.47T683.66,481q-1.14,5.1-2.69,11.32t-3,12.87q-1.43,6.66-2.26,12.88a82,82,0,0,0-.85,11q.27,10.18,6.08,13.15t14-2.4a29.47,29.47,0,0,0,6.22-5.66,76.31,76.31,0,0,0,5.23-7.07q2.42-3.67,4.11-6.79T713.37,515.28Zm-69.32,9.9q.29-4.53.85-9.06c.38-3,6.1-31.47,6.67-34.49-1-.18-7.85,2.1-7.94-1a19,19,0,0,0-2-8.21,8.47,8.47,0,0,0-6.37-4.38,13.94,13.94,0,0,0-9.9,2.12,32.54,32.54,0,0,0-8.91,8.49,58.22,58.22,0,0,0-7.08,12.73,93,93,0,0,0-4.67,14.71,60.21,60.21,0,0,0-1.55,14.57,31.3,31.3,0,0,0,2.4,12.17q2.55,6.23,7.64,8.49a17.83,17.83,0,0,0,10.89,1.13,25.27,25.27,0,0,0,11.18-5.52A32.2,32.2,0,0,0,644.05,525.18Z"/><path class="cls-2" d="M777.19,451.62a59.44,59.44,0,0,1,10.89-.14,20.86,20.86,0,0,1,9,2.68,12.94,12.94,0,0,1,5.52,6.51q1.7,4.24.28,11-4.24,19.82-8.34,39.76t-8.91,39.75q-.57,2.82-1.42,6.08c-.56,2.17-1.13,4.38-1.7,6.65q-1.69,7.63-3.25,13.72a96.16,96.16,0,0,1-4.67,13.44,108,108,0,0,1-11.17,18.67,66.88,66.88,0,0,1-15,14.57,64.42,64.42,0,0,1-19.38,9.2,67.42,67.42,0,0,1-24.33,2A36.11,36.11,0,0,1,691.18,632a33.13,33.13,0,0,1-9.9-7.35,24.75,24.75,0,0,1-5.52-9.77,23,23,0,0,1-.42-11,25.12,25.12,0,0,1,10-15.84,39,39,0,0,1,17.68-7.36q4.53-.84,4.53.85a6.28,6.28,0,0,1-.57,2.83l-.28.28a30.8,30.8,0,0,0-5.52,10.61,21.61,21.61,0,0,0-.42,11.74,12.75,12.75,0,0,0,15.13,10.19q5.52-.86,11.61-5.66t11.17-14.71c1.88-3.4,3.4-6.42,4.53-9.06a78.6,78.6,0,0,0,2.83-7.63q1.13-3.69,2-7.5c.56-2.55,1.13-5.52,1.69-8.91a31.19,31.19,0,0,0,.85-3.82,21.27,21.27,0,0,1,.85-3.54q-10.19,6.8-24.33,6.79-12.17,0-20.79-6.93a39.57,39.57,0,0,1-12.59-18,62.2,62.2,0,0,1-3.68-30.55,74.56,74.56,0,0,1,9.62-28.86A58.91,58.91,0,0,1,720,458q12.74-7.77,29.14-6.65a30.4,30.4,0,0,1,12.73,4,32.44,32.44,0,0,1,10.47,9.9l2.54-11.88A2.22,2.22,0,0,1,777.19,451.62Zm-8.77,30.13c-.75,0-6.84,2.26-6.93-.85a19,19,0,0,0-2-8.2,8.48,8.48,0,0,0-6.37-4.39,13.94,13.94,0,0,0-9.9,2.12,32.54,32.54,0,0,0-8.91,8.49,62.76,62.76,0,0,0-7.22,12.73,76.12,76.12,0,0,0-4.67,14.71,71.47,71.47,0,0,0-1.55,14.57,29.81,29.81,0,0,0,2.26,12.17,15.8,15.8,0,0,0,6.36,7.5,17.11,17.11,0,0,0,8.78,2.4,21.1,21.1,0,0,0,9.62-2.54,30.41,30.41,0,0,0,8.91-7.08Z"/><path class="cls-2" d="M938.84,494.86c-.34.67-18.46,21.55-24.17,25.48a18.65,18.65,0,0,0-2.09,1.67l-7.05,6.53a10.51,10.51,0,0,0-1.2,1.3c-2.3,2.9-4.7,5.34-6.8,7.79a75.4,75.4,0,0,1-16.27,14.14,73.17,73.17,0,0,1-19.38,8.91A59.93,59.93,0,0,1,840.94,563a49.71,49.71,0,0,1-20.65-6.08A36.71,36.71,0,0,1,804.87,542a48.71,48.71,0,0,1-5.94-20.79,74.18,74.18,0,0,1,2.41-23.34,68.64,68.64,0,0,1,27-39.19,50.59,50.59,0,0,1,22.78-8.77,50.07,50.07,0,0,1,17.26.71,27.69,27.69,0,0,1,13.86,7.5q7.07,6.78,8.35,14.57A29.22,29.22,0,0,1,889,488a40.61,40.61,0,0,1-9.19,14,67.25,67.25,0,0,1-14.43,11.17,58.84,58.84,0,0,1-17.12,6.65,42.43,42.43,0,0,1-17.54.29q0,9,5.23,14.28a27.57,27.57,0,0,0,12.73,7.22,40.38,40.38,0,0,0,31.83-5.66,74.52,74.52,0,0,0,11.6-9.9l9.17-8.38,4.73-4.4c.56-.66,37.91-26.13,38.29-26.7C945.28,485.42,940,492.78,938.84,494.86ZM847.73,476.8a50.72,50.72,0,0,0-10,13.58,63.93,63.93,0,0,0-5.8,15.56,41.49,41.49,0,0,0,12.17-2.41A44.47,44.47,0,0,0,854.81,498a43.67,43.67,0,0,0,8.34-7.64,25.83,25.83,0,0,0,5-8.77c.94-3.21,1-5.75.14-7.64a6.06,6.06,0,0,0-4.39-3.54,13.19,13.19,0,0,0-7.36.85A28.77,28.77,0,0,0,847.73,476.8Z"/><path class="cls-2" d="M975.21,512.56a6.43,6.43,0,0,1,3-3.68,4.34,4.34,0,0,1,3.39-.28,4.83,4.83,0,0,1,2.55,2.69,9.35,9.35,0,0,1,.42,5.51,75.68,75.68,0,0,1-4,13.16,73.66,73.66,0,0,1-7.36,14,75,75,0,0,1-10.75,12.74A47.37,47.37,0,0,1,948.34,566a39,39,0,0,1-11.75,3,50,50,0,0,1-13-.28A41.64,41.64,0,0,1,911.7,565a19.69,19.69,0,0,1-8.35-7.21,8.3,8.3,0,0,1-1.41-4.39,3.48,3.48,0,0,1,1.13-3,2.52,2.52,0,0,1,2.54-1.13,15.78,15.78,0,0,1,2.83.85q3.12,1.41,4.81,2.12a14,14,0,0,0,5.1.71,14.71,14.71,0,0,0,5.37-1,9.28,9.28,0,0,0,5.52-7.36,14.17,14.17,0,0,0-.43-4.38A149,149,0,0,0,921,523.17q-4.95-9.48-9.76-19.24t-8.34-19a46.6,46.6,0,0,1-3.54-16.55q0-17.82,11.18-27.16t29-7.07a33.42,33.42,0,0,1,11,3.11,17.58,17.58,0,0,1,8.2,7.92,25.84,25.84,0,0,1,3.26,14,40.54,40.54,0,0,1-3.4,14,74.3,74.3,0,0,1-7.35,13q-4.39,6.22-8.63,11.32,5.66,9,11,19.38a64,64,0,0,1,6.79,22.2,104,104,0,0,0,9.34-14.42C971.72,521,973.52,516.9,975.21,512.56Zm-38.47-26.88c.75-.94,1.69-2.16,2.83-3.68a30.88,30.88,0,0,0,3.11-5.23,60.78,60.78,0,0,0,2.54-6.22,26.54,26.54,0,0,0,1.42-6.37,10.76,10.76,0,0,0-1.56-6.79,7.33,7.33,0,0,0-9.62-3.11q-2.69,1.13-3.82,5t-.28,10.33Q932.21,476.07,936.74,485.68Z"/></svg>