<svg id="Camada_1" data-name="Camada 1" xmlns="http://www.w3.org/2000/svg" viewBox="0 0 500 500"><defs><style>.cls-1{fill:#fff;}</style></defs><title>branco, flor branca</title><path class="cls-1" d="M331.72,206.15s0,15,7,27.22S353.13,248.2,355,247.13s2.49-10-4.57-22.26A55.32,55.32,0,0,0,331.72,206.15Z"/><path class="cls-1" d="M315.49,235.08s10.19,8.64,22.56,10.88,18.35-1.23,18.69-3.12-5.39-7.46-17.76-9.7A49.28,49.28,0,0,0,315.49,235.08Z"/><path class="cls-1" d="M364.89,205.16s2.39,13.14-1.86,25-10.24,15.28-12,14.63-3.77-8.4.48-20.23A49.26,49.26,0,0,1,364.89,205.16Z"/><path class="cls-1" d="M325.59,256.94s11.11,0,20.16-5.22,11-10.64,10.2-12-7.44-1.84-16.49,3.38A41,41,0,0,0,325.59,256.94Z"/><path class="cls-1" d="M379.83,225.85s-5.55,9.62-14.6,14.85-14.71,4.2-15.51,2.82,2.12-7.36,11.18-12.59A41,41,0,0,1,379.83,225.85Z"/><path class="cls-1" d="M372.8,243.8a27.78,27.78,0,0,1-12,4.11c-6.36.38-9.15-1.72-9.21-2.69s3.16-3.43,9.51-3.81A24.93,24.93,0,0,1,372.8,243.8Z"/><path class="cls-1" d="M344.38,260.18a27.79,27.79,0,0,0,9.28-8.65c3.32-5.43,2.79-8.88,2-9.39s-4.51,1.17-7.84,6.6A25,25,0,0,0,344.38,260.18Z"/><path class="cls-1" d="M176.76,202.53a38.94,38.94,0,0,0-9.47-15.34,41.35,41.35,0,0,0-16.49-10.27A51.08,51.08,0,0,0,129,174.85q-12.1,1.25-25.45,9.36c-3.59,2.17-9.94,6.89-12.64,8.93a10.72,10.72,0,0,0-2.2,2.26l-.69,1c-1.39,1.85-4.64,6.83-4,13.09a12.84,12.84,0,0,0,2.16,5.8c1.16,1.75,3,4.52,5.17,7.65a1.55,1.55,0,0,0,2.79-.52c.07-.33.16-.67.25-1a50.49,50.49,0,0,1,8.08-17.07,40.79,40.79,0,0,1,6.76-7.28,44.83,44.83,0,0,1,8.72-5.86,40.18,40.18,0,0,1,9.57-3.47,22.29,22.29,0,0,1,9.58-.1A26.78,26.78,0,0,1,148.63,193a24.79,24.79,0,0,1,6.7,8.94A33.61,33.61,0,0,1,158,213a47.86,47.86,0,0,1-3.93,22.66,36.22,36.22,0,0,1-5.32,8.71c-.64.78-.81,1.32-.5,1.62a1.58,1.58,0,0,0,1.41.31,31.78,31.78,0,0,1,15,3.32A30,30,0,0,1,175,258.14a26.78,26.78,0,0,1,5.06,11.43,25.16,25.16,0,0,1-.69,12.29,22.49,22.49,0,0,1-5.63,8.89,12.2,12.2,0,0,1-9.86,3.33,10.54,10.54,0,0,1-5.44-1.78,18.54,18.54,0,0,1-4.37-4,27.11,27.11,0,0,1-3.31-5.37,58.9,58.9,0,0,1-2.37-5.7q-1.38-4.53-2.67-8.71c-.86-2.78-1.62-5.35-2.29-7.69q-1.87-6.09-4-13.09t-4.11-14.23q-2-7.23-4.07-14.15c-1.37-4.61-2.71-8.93-3.92-13-1.54-5.14-19.25,2.68-19.86,8.39a45.34,45.34,0,0,1-2.14,10.15c-1.15,3.33-5.3,13.2-4.2,14.85,3.22,4.81,6.82,5.51,7.71,4.77,2.85-2.4,4.94-6.35,6.79-9.06q2.88,9.62,5.63,19t5.5,18q1.61,5.64,4.09,12.4a65.43,65.43,0,0,0,6.16,12.63,34.69,34.69,0,0,0,8.85,9.65,16.77,16.77,0,0,0,12,3.14,25.22,25.22,0,0,0,8-2.15,70.7,70.7,0,0,0,7.33-3.62A53.33,53.33,0,0,0,187.79,293a47.83,47.83,0,0,0,8.53-13.63,40,40,0,0,0,2.93-14.1,31.49,31.49,0,0,0-2.37-13,27.7,27.7,0,0,0-19.83-16.43c-1.4-.28-2.86-.5-4.38-.65a17.73,17.73,0,0,0-4.87.25,31,31,0,0,0,9.63-15.8A31.85,31.85,0,0,0,176.76,202.53Z"/><path class="cls-1" d="M273.09,195.59a1.49,1.49,0,0,1,.82-1.6,1.88,1.88,0,0,1,2,.4,7.77,7.77,0,0,1,2.09,2.9,18.72,18.72,0,0,1,1.39,6,37.72,37.72,0,0,1-.35,9.52,37.12,37.12,0,0,1-2.74,9.27,32.75,32.75,0,0,1-5.08,8.06,20.72,20.72,0,0,1-7.54,5.59q-5.58,2.4-10,1.35a17.38,17.38,0,0,1-8.11-4.64,30.31,30.31,0,0,1-4.08,12.29,26.81,26.81,0,0,1-9.9,9.31A20.13,20.13,0,0,1,218,256.8a25.18,25.18,0,0,1-12.49-6,41.1,41.1,0,0,1-11.46-15.42,45,45,0,0,1-3.82-18.5,37.39,37.39,0,0,1,4.59-17.62A30.23,30.23,0,0,1,208.6,186.5a18.51,18.51,0,0,1,17.62.69c-.4-1.41-.78-2.76-1.12-4.07s-.74-2.57-1.18-3.82a1.66,1.66,0,0,1,.45-1.7,33.6,33.6,0,0,1,6-3.46,15,15,0,0,1,5.84-1.43,7.68,7.68,0,0,1,5,1.73,12.08,12.08,0,0,1,3.62,5.91c.77,2.29,1.57,5,2.4,8.25S249,195,250,198.29s2,6.42,3.11,9.48a36.38,36.38,0,0,0,3.47,7.43q3.27,5.3,7.31,5.2t6.74-5.73A24.88,24.88,0,0,0,273,204.15Q273.1,198.45,273.09,195.59Zm-34.65,27q-1.17-2.4-2.24-5c-.72-1.71-1.42-3.52-2.12-5.44,0,0-5-11.22-5.51-13.36s-3.22,1.49-4.25-.17a11.84,11.84,0,0,0-3.65-3.84,5.31,5.31,0,0,0-4.83-.38,8.69,8.69,0,0,0-4.72,4.26A19.41,19.41,0,0,0,209,206a42.74,42.74,0,0,0,.15,9.14,47.32,47.32,0,0,0,2.08,9.46A45.18,45.18,0,0,0,215,233a18.66,18.66,0,0,0,5.05,5.9,9.26,9.26,0,0,0,6.89,2.17,10.78,10.78,0,0,0,6.23-2.88,17.44,17.44,0,0,0,4.3-6.58A18.29,18.29,0,0,0,238.44,222.57Z"/><path class="cls-1" d="M337.1,158.64a1.35,1.35,0,0,1,.86-1.53,2.11,2.11,0,0,1,2,.4,7.68,7.68,0,0,1,2.08,2.9,18.68,18.68,0,0,1,1.44,6,42.12,42.12,0,0,1-.39,9.44,35.73,35.73,0,0,1-2.7,9.35,32.5,32.5,0,0,1-5.09,8.06,20.77,20.77,0,0,1-7.53,5.58c-3.83,1.67-7.16,2.16-10,1.48a17.27,17.27,0,0,1-8.08-4.76,31.1,31.1,0,0,1-4.27,12.3,27.5,27.5,0,0,1-9.94,9.23,19.84,19.84,0,0,1-13.4,2.71,26.44,26.44,0,0,1-12.55-5.77A41.2,41.2,0,0,1,258,198.58a45.81,45.81,0,0,1-3.91-18.66,37,37,0,0,1,4.55-17.69,29.31,29.31,0,0,1,13.84-12.6q8.42-4.24,17.68.45-3.87-12.74-7.57-25.35t-7.89-25.58a1.38,1.38,0,0,1,.69-1.63A37.38,37.38,0,0,1,281.25,94,13.06,13.06,0,0,1,287,92.65a8.09,8.09,0,0,1,5,1.8,12.16,12.16,0,0,1,3.62,5.91q3.9,12.09,7.3,24.38t7.25,24.61q1,3.14,2.09,7c.74,2.58,1.54,5.22,2.42,7.92s1.82,5.28,2.81,7.71a53.68,53.68,0,0,0,3,6.26q3.34,5.44,7.43,5.24t6.86-5.7a18.41,18.41,0,0,0,1.61-5,48.36,48.36,0,0,0,.62-5.48c.1-1.84.14-3.5.1-5S337.11,159.59,337.1,158.64Zm-34.56,27.12c-.84-1.69-1.64-3.42-2.38-5.18s-6.56-19-7.2-20.84c-.57.2-3.6,3.6-4.63,1.94a11.7,11.7,0,0,0-3.65-3.83,5.28,5.28,0,0,0-4.83-.39,8.77,8.77,0,0,0-4.72,4.26,20.47,20.47,0,0,0-2.18,7.41,37,37,0,0,0,.15,9.13,57.55,57.55,0,0,0,2.08,9.46,37.58,37.58,0,0,0,3.73,8.41A19.64,19.64,0,0,0,284,202a9.32,9.32,0,0,0,6.81,2.21,11.18,11.18,0,0,0,6.28-2.8,15.9,15.9,0,0,0,4.34-6.51A20.22,20.22,0,0,0,302.54,185.76Z"/><path class="cls-1" d="M205.17,298.46a36.11,36.11,0,0,1,5.62-3.34,12.56,12.56,0,0,1,5.52-1.32,7.77,7.77,0,0,1,4.83,1.72,11.66,11.66,0,0,1,3.46,5.66q3.75,11.58,7.6,23.19t7.3,23.37c.37,1.09.74,2.29,1.1,3.59s.72,2.62,1.11,4q1.41,4.49,2.43,8.11a58.46,58.46,0,0,1,1.61,8.4,64.55,64.55,0,0,1-.21,13.07A40.24,40.24,0,0,1,242.12,397a39.06,39.06,0,0,1-7.32,10.61,40.52,40.52,0,0,1-12.07,8.34,21.75,21.75,0,0,1-8.13,2.24,20,20,0,0,1-7.36-.85,14.78,14.78,0,0,1-5.81-3.43,13.8,13.8,0,0,1-3.53-5.61,15.12,15.12,0,0,1,.46-11.26,23.33,23.33,0,0,1,7-9.14c1.39-1.2,2.27-1.51,2.61-.92a3.79,3.79,0,0,1,.55,1.64l-.06.23a18.27,18.27,0,0,0,.32,7.18,13,13,0,0,0,3.3,6.24,8,8,0,0,0,5.38,2.68A7.94,7.94,0,0,0,223,403a15.3,15.3,0,0,0,4.34-6.43,26.64,26.64,0,0,0,1.39-11c0-2.33-.16-4.36-.36-6.07a45.68,45.68,0,0,0-.83-4.83c-.34-1.5-.75-3-1.22-4.49s-1.07-3.21-1.79-5.15a18.42,18.42,0,0,0-.71-2.24,12.84,12.84,0,0,1-.62-2.1,25.66,25.66,0,0,1-10.62,10.84,19.28,19.28,0,0,1-12.9,2.64,23.8,23.8,0,0,1-11.95-5.56,37.45,37.45,0,0,1-11.1-14.8,45,45,0,0,1-3.66-17.9A35.34,35.34,0,0,1,177.34,319a29,29,0,0,1,13.17-12.22,18.31,18.31,0,0,1,7.81-1.76,19.33,19.33,0,0,1,8.43,2l-2.25-7A1.34,1.34,0,0,1,205.17,298.46Zm4.49,18.32c-.39.22-2.88,3.23-3.87,1.64a11.25,11.25,0,0,0-3.49-3.68,5.11,5.11,0,0,0-4.63-.37,8.45,8.45,0,0,0-4.52,4.08,19.59,19.59,0,0,0-2.08,7.1,37.59,37.59,0,0,0,.07,8.79,45.41,45.41,0,0,0,2,9.06,42.68,42.68,0,0,0,3.57,8.05,17.76,17.76,0,0,0,4.83,5.65,9.46,9.46,0,0,0,5.56,2,10.23,10.23,0,0,0,5.29-1.39,12.6,12.6,0,0,0,4.24-4.21,18.1,18.1,0,0,0,2.51-6.36Z"/><path class="cls-1" d="M302.27,272.4c0,.45-3.12,16.76-4.91,20.52a10.15,10.15,0,0,0-.59,1.5l-1.71,5.51a6.24,6.24,0,0,0-.23,1c-.33,2.2-.84,4.19-1.2,6.09a45.16,45.16,0,0,1-4.22,12.25,43.92,43.92,0,0,1-7.4,10.46,36.24,36.24,0,0,1-10.22,7.47,29.84,29.84,0,0,1-12.57,3,21.93,21.93,0,0,1-12.49-3.1,29.23,29.23,0,0,1-9.34-9,44.74,44.74,0,0,1-5.76-12.87,41.28,41.28,0,0,1,2.29-28.51,30.87,30.87,0,0,1,18.41-16.22,16.78,16.78,0,0,1,9.46-.27,15.67,15.67,0,0,1,8.72,5.08,17.58,17.58,0,0,1,3.79,8.42,24.59,24.59,0,0,1-.58,10.05A40.71,40.71,0,0,1,269.57,304a35.94,35.94,0,0,1-6.91,8.6,25.5,25.5,0,0,1-9.05,5.42,11.64,11.64,0,0,0,7,5.86,16.61,16.61,0,0,0,8.79-.07,23,23,0,0,0,8.57-4.55,23.35,23.35,0,0,0,6.3-8,44.64,44.64,0,0,0,3.06-8.64l2.25-7.11,1.14-3.71c.1-.51,11.88-25,11.9-25.4C302.79,265.55,302.24,271,302.27,272.4Zm-52.83,18a30.64,30.64,0,0,0-1.14,10.09A38.47,38.47,0,0,0,250,310.3a24.76,24.76,0,0,0,5.61-4.91,26.75,26.75,0,0,0,3.94-6.1,26,26,0,0,0,2.05-6.48,15.76,15.76,0,0,0-.06-6.06,6.65,6.65,0,0,0-2.22-4,3.64,3.64,0,0,0-3.35-.53,7.9,7.9,0,0,0-3.57,2.66A17.21,17.21,0,0,0,249.44,290.37Z"/><path class="cls-1" d="M326.52,270.68a3.83,3.83,0,0,1,.44-2.8,2.58,2.58,0,0,1,1.69-1.17,2.92,2.92,0,0,1,2.13.63,5.68,5.68,0,0,1,1.88,2.74,46.32,46.32,0,0,1,1.89,8,44.62,44.62,0,0,1,.38,9.5,45.19,45.19,0,0,1-1.77,9.85,28.36,28.36,0,0,1-4.56,9.11,23.22,23.22,0,0,1-5.22,5.08,30.21,30.21,0,0,1-6.85,3.76,25,25,0,0,1-7.29,1.65,11.79,11.79,0,0,1-6.51-1.24,5,5,0,0,1-2.06-1.86,2.12,2.12,0,0,1-.3-1.89,1.53,1.53,0,0,1,1-1.35,10.29,10.29,0,0,1,1.72-.41c1.36-.13,2.41-.24,3.14-.34a8.31,8.31,0,0,0,2.87-1.16,9,9,0,0,0,2.5-2.13,4.81,4.81,0,0,0,1.08-2.88,4.88,4.88,0,0,0-.42-2.61,8.62,8.62,0,0,0-1.54-2.15,92,92,0,0,0-9.19-6.57q-5.43-3.45-10.86-7.08t-10-7.36a27.83,27.83,0,0,1-6.81-7.55q-5.35-9.27-2.35-17.49t13-12.39a20.35,20.35,0,0,1,6.67-1.7,10.61,10.61,0,0,1,6.65,1.66,15.39,15.39,0,0,1,5.9,6.31,24.43,24.43,0,0,1,2.45,8.31,44.86,44.86,0,0,1,.08,9q-.42,4.56-1.09,8.48,5.66,3,11.56,6.77a38.63,38.63,0,0,1,10.21,9.52,62.63,62.63,0,0,0,.52-10.31Q327.16,274.84,326.52,270.68Zm-28.09-2.42c.1-.72.23-1.64.36-2.77a18.42,18.42,0,0,0,0-3.66,38.35,38.35,0,0,0-.55-4,16,16,0,0,0-1.17-3.74,6.46,6.46,0,0,0-2.85-3.06,4.39,4.39,0,0,0-5.94,1.27,4.22,4.22,0,0,0-.5,3.72,15.62,15.62,0,0,0,2.95,5.46A34.32,34.32,0,0,0,298.43,268.26Z"/><rect class="cls-1" x="347.62" y="263.47" width="44.15" height="20.09" rx="10.05" transform="translate(-87.23 221.49) rotate(-30)"/></svg>