<svg id="Camada_1" data-name="Camada 1" xmlns="http://www.w3.org/2000/svg" xmlns:xlink="http://www.w3.org/1999/xlink" viewBox="0 0 1076.27 1037.29"><defs><style>.cls-1{fill:none;}.cls-2{fill:#007f00;}.cls-3{fill:url(#Novo_padrão_4);}</style><pattern id="Novo_padrão_4" data-name="Novo padrão 4" x="42.25" y="15.75" width="360" height="360" patternUnits="userSpaceOnUse" viewBox="0 0 360 360"><rect class="cls-1" width="360" height="360"/><path class="cls-2" d="M359,220s-14.12,24.41-14.12,51,9.45,37.67,13.49,37.67,13.49-14,13.49-40.55S359,220,359,220Z"/><path class="cls-2" d="M305.31,251.86s8.47,23.65,26.52,38.93,31,15.25,33.37,12.5-1.75-17.23-19.8-32.51S305.31,251.86,305.31,251.86Z"/><path class="cls-2" d="M413.92,249.58s-8.46,23.65-26.51,38.92S356.36,303.76,354,301s1.75-17.23,19.8-32.51S413.92,249.58,413.92,249.58Z"/><path class="cls-2" d="M301.21,297s18.08,10.47,37.75,10.47,27.9-7,27.9-10-10.37-10-30-10S301.21,297,301.21,297Z"/><path class="cls-2" d="M418.79,297.32S400.71,307.79,381,307.79s-27.9-7-27.9-10,10.37-10,30-10S418.79,297.32,418.79,297.32Z"/><path class="cls-2" d="M390.47,320s-12.7.77-23.41-4.59-13.28-11.41-12.47-13,8.37-2.62,19.08,2.74A47,47,0,0,1,390.47,320Z"/><path class="cls-2" d="M328.77,319.91s12.71.35,23.24-5.37,12.9-11.84,12-13.45-8.45-2.34-19,3.37A46.94,46.94,0,0,0,328.77,319.91Z"/><path class="cls-2" d="M179,310s-14.12,24.41-14.12,51,9.45,37.67,13.49,37.67,13.49-14,13.49-40.55S179,310,179,310Z"/><path class="cls-2" d="M125.31,341.86s8.47,23.65,26.52,38.93,31,15.25,33.37,12.5-1.75-17.23-19.8-32.51S125.31,341.86,125.31,341.86Z"/><path class="cls-2" d="M233.92,339.58s-8.46,23.65-26.51,38.92S176.36,393.76,174,391s1.75-17.23,19.8-32.51S233.92,339.58,233.92,339.58Z"/><path class="cls-2" d="M-1,220s-14.12,24.41-14.12,51,9.45,37.67,13.49,37.67,13.49-14,13.49-40.55S-1,220-1,220Z"/><path class="cls-2" d="M-54.69,251.86s8.47,23.65,26.52,38.93S2.87,306,5.2,303.29s-1.75-17.23-19.8-32.51S-54.69,251.86-54.69,251.86Z"/><path class="cls-2" d="M53.92,249.58s-8.46,23.65-26.51,38.92S-3.64,303.76-6,301s1.75-17.23,19.8-32.51S53.92,249.58,53.92,249.58Z"/><path class="cls-2" d="M-58.79,297S-40.71,307.43-21,307.43s27.9-7,27.9-10-10.37-10-30-10S-58.79,297-58.79,297Z"/><path class="cls-2" d="M58.79,297.32S40.71,307.79,21,307.79s-27.9-7-27.9-10,10.37-10,30-10S58.79,297.32,58.79,297.32Z"/><path class="cls-2" d="M30.47,320s-12.7.77-23.41-4.59S-6.22,304-5.41,302.33s8.37-2.62,19.08,2.74A47,47,0,0,1,30.47,320Z"/><path class="cls-2" d="M-31.23,319.91s12.71.35,23.24-5.37S4.91,302.7,4,301.09s-8.45-2.34-19,3.37A46.94,46.94,0,0,0-31.23,319.91Z"/><path class="cls-2" d="M359,40s-14.12,24.41-14.12,51,9.45,37.67,13.49,37.67,13.49-14,13.49-40.55S359,40,359,40Z"/><path class="cls-2" d="M305.31,71.86s8.47,23.65,26.52,38.93,31,15.25,33.37,12.5-1.75-17.23-19.8-32.51S305.31,71.86,305.31,71.86Z"/><path class="cls-2" d="M413.92,69.58s-8.46,23.65-26.51,38.92S356.36,123.76,354,121s1.75-17.23,19.8-32.51S413.92,69.58,413.92,69.58Z"/><path class="cls-2" d="M301.21,117s18.08,10.47,37.75,10.47,27.9-7,27.9-10-10.37-10-30-10S301.21,117,301.21,117Z"/><path class="cls-2" d="M418.79,117.32S400.71,127.79,381,127.79s-27.9-7-27.9-10,10.37-10,30-10S418.79,117.32,418.79,117.32Z"/><path class="cls-2" d="M390.47,140s-12.7.77-23.41-4.59-13.28-11.41-12.47-13,8.37-2.62,19.08,2.74A47,47,0,0,1,390.47,140Z"/><path class="cls-2" d="M328.77,139.91s12.71.35,23.24-5.37,12.9-11.84,12-13.45-8.45-2.34-19,3.37A46.94,46.94,0,0,0,328.77,139.91Z"/><path class="cls-2" d="M179,130s-14.12,24.41-14.12,51,9.45,37.67,13.49,37.67,13.49-14,13.49-40.55S179,130,179,130Z"/><path class="cls-2" d="M125.31,161.86s8.47,23.65,26.52,38.93,31,15.25,33.37,12.5-1.75-17.23-19.8-32.51S125.31,161.86,125.31,161.86Z"/><path class="cls-2" d="M233.92,159.58s-8.46,23.65-26.51,38.92S176.36,213.76,174,211s1.75-17.23,19.8-32.51S233.92,159.58,233.92,159.58Z"/><path class="cls-2" d="M121.21,207s18.08,10.47,37.75,10.47,27.9-7,27.9-10-10.37-10-30-10S121.21,207,121.21,207Z"/><path class="cls-2" d="M238.79,207.32S220.71,217.79,201,217.79s-27.9-7-27.9-10,10.37-10,30-10S238.79,207.32,238.79,207.32Z"/><path class="cls-2" d="M210.47,230s-12.7.77-23.41-4.59-13.28-11.41-12.47-13,8.37-2.62,19.08,2.74A47,47,0,0,1,210.47,230Z"/><path class="cls-2" d="M148.77,229.91s12.71.35,23.24-5.37,12.9-11.84,12-13.45-8.45-2.34-19,3.37A46.94,46.94,0,0,0,148.77,229.91Z"/><path class="cls-2" d="M-1,40S-15.17,64.41-15.17,91s9.45,37.67,13.49,37.67,13.49-14,13.49-40.55S-1,40-1,40Z"/><path class="cls-2" d="M-54.69,71.86s8.47,23.65,26.52,38.93S2.87,126,5.2,123.29,3.45,106.06-14.6,90.78-54.69,71.86-54.69,71.86Z"/><path class="cls-2" d="M53.92,69.58S45.46,93.23,27.41,108.5-3.64,123.76-6,121s1.75-17.23,19.8-32.51S53.92,69.58,53.92,69.58Z"/><path class="cls-2" d="M-58.79,117S-40.71,127.43-21,127.43s27.9-7,27.9-10-10.37-10-30-10S-58.79,117-58.79,117Z"/><path class="cls-2" d="M58.79,117.32S40.71,127.79,21,127.79s-27.9-7-27.9-10,10.37-10,30-10S58.79,117.32,58.79,117.32Z"/><path class="cls-2" d="M30.47,140s-12.7.77-23.41-4.59S-6.22,124-5.41,122.33s8.37-2.62,19.08,2.74A47,47,0,0,1,30.47,140Z"/><path class="cls-2" d="M-31.23,139.91s12.71.35,23.24-5.37S4.91,122.7,4,121.09s-8.45-2.34-19,3.37A46.94,46.94,0,0,0-31.23,139.91Z"/><path class="cls-2" d="M179-50S164.83-25.59,164.83,1s9.45,37.67,13.49,37.67,13.49-14,13.49-40.55S179-50,179-50Z"/><path class="cls-2" d="M125.31-18.14s8.47,23.65,26.52,38.93,31,15.25,33.37,12.5S183.45,16.06,165.4.78,125.31-18.14,125.31-18.14Z"/><path class="cls-2" d="M233.92-20.42S225.46,3.23,207.41,18.5,176.36,33.76,174,31s1.75-17.23,19.8-32.51S233.92-20.42,233.92-20.42Z"/><path class="cls-2" d="M121.21,27S139.29,37.43,159,37.43s27.9-7,27.9-10-10.37-10-30-10S121.21,27,121.21,27Z"/><path class="cls-2" d="M238.79,27.32S220.71,37.79,201,37.79s-27.9-7-27.9-10,10.37-10,30-10S238.79,27.32,238.79,27.32Z"/><path class="cls-2" d="M210.47,50s-12.7.77-23.41-4.59-13.28-11.41-12.47-13,8.37-2.62,19.08,2.74A47,47,0,0,1,210.47,50Z"/><path class="cls-2" d="M148.77,49.91s12.71.35,23.24-5.37,12.9-11.84,12-13.45-8.45-2.34-19,3.37A46.94,46.94,0,0,0,148.77,49.91Z"/></pattern></defs><title>pattern maconha</title><rect class="cls-3" width="1076.27" height="1037.29"/></svg>